<svg width="53" height="46" viewBox="0 0 53 46" fill="none" xmlns="http://www.w3.org/2000/svg">
<path fill-rule="evenodd" clip-rule="evenodd" d="M7.05302 1.53063C7.65987 0.809086 7.96329 0.448312 8.37597 0.412678C8.78864 0.377044 9.14942 0.680466 9.87096 1.28731L19.9406 9.75622C20.6882 10.3849 21.0619 10.6992 21.2492 11.1303C21.4365 11.5615 21.4112 12.0492 21.3607 13.0246L21.1998 16.1281C21.1244 17.5818 21.0867 18.3087 20.6548 18.8223C20.2228 19.3359 19.5132 19.4976 18.0939 19.821L15.0639 20.5116C14.1116 20.7286 13.6354 20.8371 13.1786 20.7265C12.7217 20.6158 12.348 20.3015 11.6005 19.6728L1.53081 11.2039C0.809261 10.5971 0.448487 10.2936 0.412854 9.88095C0.37722 9.46827 0.680642 9.1075 1.28748 8.38595L7.05302 1.53063ZM17.2939 15.9955C16.5262 16.9083 15.0645 16.9423 14.0291 16.0715C12.9937 15.2007 12.7767 13.7548 13.5444 12.842C14.3121 11.9292 15.7738 11.8952 16.8092 12.766C17.8446 13.6368 18.0616 15.0827 17.2939 15.9955ZM5.28764 9.76657C5.55195 10.026 5.8048 10.2611 6.0462 10.4718L5.45011 11.1174L5.99732 11.6254L6.65457 10.9211C6.95201 11.1251 7.25032 11.2891 7.5495 11.413C7.85988 11.5355 8.15789 11.6025 8.44352 11.6138C8.72916 11.6251 8.99614 11.5759 9.24446 11.4661C9.504 11.3549 9.73724 11.167 9.94419 10.9023C10.1364 10.6565 10.2469 10.4177 10.2759 10.1858C10.3098 9.94761 10.2845 9.71369 10.2 9.48404C10.1218 9.25935 9.99812 9.03442 9.8289 8.80925C9.66461 8.57778 9.48843 8.34204 9.30036 8.10201L10.3057 7.03041C10.5785 7.26596 10.8258 7.50172 11.0475 7.73771C11.2754 7.97864 11.4493 8.17184 11.5692 8.3173L12.4044 7.24904C12.2603 7.04369 12.0812 6.83113 11.8672 6.61136C11.6594 6.39654 11.4536 6.19861 11.2499 6.01756L11.8998 5.32274L11.3526 4.81473L10.6563 5.54938C10.3526 5.34039 10.0512 5.17395 9.75199 5.05007C9.4591 4.93113 9.16983 4.866 8.8842 4.85468C8.60977 4.84201 8.34839 4.89058 8.10007 5.00038C7.85175 5.11019 7.62657 5.29429 7.42455 5.55269C7.18803 5.8552 7.05621 6.15369 7.02909 6.44815C7.01317 6.74126 7.04881 7.0139 7.13599 7.26606C7.22946 7.52318 7.35384 7.75374 7.50914 7.95774C7.67073 8.16669 7.81076 8.33827 7.92924 8.47247L6.99982 9.46642C6.85535 9.35247 6.70706 9.23042 6.55495 9.10026C6.40778 8.9638 6.26374 8.82982 6.12284 8.69831C5.99315 8.56546 5.86974 8.43755 5.75262 8.31461C5.64042 8.18536 5.54953 8.06782 5.47994 7.962L4.64474 9.03026C4.81532 9.26668 5.02962 9.51212 5.28764 9.76657ZM8.44116 6.84357C8.38723 6.67877 8.41692 6.52389 8.53025 6.37893C8.63373 6.24658 8.77403 6.18403 8.95115 6.19127C9.13455 6.20347 9.38821 6.32713 9.71214 6.56223L8.83649 7.50689C8.62687 7.22948 8.4951 7.00838 8.44116 6.84357ZM8.86935 9.97812C8.86355 10.0245 8.84588 10.0666 8.81631 10.1044C8.5995 10.3817 8.19119 10.3195 7.59138 9.91771L8.4079 9.04869C8.54929 9.23152 8.65545 9.38148 8.72639 9.49856C8.79732 9.61564 8.84313 9.71291 8.86382 9.79036C8.88451 9.86781 8.88635 9.93039 8.86935 9.97812Z" fill="#9A9999"/>
<path d="M42.4402 26.9336L47.8089 22.6901C47.9078 22.6119 47.9106 22.4628 47.8146 22.381L36.4712 12.712C34.6296 11.1422 31.9281 11.1165 30.057 12.651L18.195 22.3791C18.0954 22.4608 18.0979 22.6141 18.2002 22.6925L23.7336 26.9336M42.4402 26.9336L38.7798 29.8267C37.5801 30.775 36.8803 32.2201 36.8803 33.7494V40L48 31.3281L42.4402 26.9336ZM23.7336 26.9336L27.5088 29.8271C28.7433 30.7733 29.4672 32.2401 29.4672 33.7956V40L18 31.3281L23.7336 26.9336ZM27.2664 22.5391L30.038 20.1664C31.9096 18.5641 34.6695 18.5641 36.5412 20.1664L39.3127 22.5391" stroke="#17D1ED" stroke-width="5"/>
</svg>
