<svg width="101" height="34" viewBox="0 0 101 34" fill="none" xmlns="http://www.w3.org/2000/svg">
<path fill-rule="evenodd" clip-rule="evenodd" d="M2.88484 1.6378C3.42596 0.865734 3.69651 0.479701 4.07077 0.447907C4.44502 0.416113 4.77682 0.750974 5.44041 1.4207L10.1368 6.16041C10.6244 6.65251 10.8682 6.89856 11.028 7.211C11.0961 7.34394 11.1523 7.48471 11.1957 7.63094C11.2978 7.97461 11.3021 8.35005 11.3107 9.10094C11.3258 10.4085 11.3333 11.0623 11.0919 11.5635C10.9905 11.774 10.8592 11.9612 10.7038 12.1172C10.3337 12.4886 9.79562 12.5918 8.71954 12.7981C8.10158 12.9166 7.7926 12.9758 7.49295 12.9141C7.36545 12.8878 7.24024 12.8455 7.11944 12.7878C6.83552 12.6524 6.59172 12.4063 6.10412 11.9142L1.40778 7.17453C0.744179 6.50481 0.412381 6.16994 0.37433 5.72204C0.336279 5.27413 0.606835 4.8881 1.14795 4.11603L2.88484 1.6378ZM9.27429 10.2018C8.9031 10.7314 8.138 10.6922 7.56539 10.1144C6.99279 9.53646 6.82951 8.63864 7.20071 8.10902C7.5719 7.57939 8.337 7.61852 8.90961 8.19641C9.48221 8.7743 9.64549 9.67213 9.27429 10.2018ZM3.12977 5.87995C3.23105 5.99938 3.32786 6.1077 3.4202 6.20492L3.19945 6.49324L3.40896 6.72732L3.65241 6.41282C3.76584 6.50738 3.87935 6.58379 3.99293 6.64205C4.11074 6.69977 4.22353 6.73221 4.33131 6.73936C4.43908 6.74651 4.53945 6.72608 4.63241 6.67807C4.72958 6.62954 4.81636 6.54602 4.89275 6.42753C4.96368 6.3175 5.00388 6.21005 5.01336 6.10518C5.02466 5.99749 5.01366 5.8913 4.98038 5.78664C4.94949 5.68426 4.90144 5.58146 4.83623 5.47822C4.77284 5.37217 4.70493 5.26409 4.63252 5.15398L5.00495 4.67548C5.10929 4.78415 5.20399 4.89273 5.28905 5.00124C5.37652 5.11204 5.4433 5.20082 5.48939 5.26758L5.79768 4.78938C5.74206 4.69531 5.67321 4.59772 5.59112 4.49661C5.51144 4.39779 5.43262 4.30664 5.35468 4.22315L5.5954 3.91288L5.38589 3.6788L5.12793 4.0068C5.0121 3.90994 4.89739 3.83239 4.78381 3.77413C4.67262 3.71817 4.56314 3.68661 4.45536 3.67946C4.3518 3.67178 4.25354 3.69194 4.16059 3.73994C4.06763 3.78795 3.98387 3.86979 3.9093 3.98546C3.822 4.12088 3.77415 4.25521 3.76576 4.38846C3.76159 4.52117 3.77672 4.64498 3.81117 4.75986C3.84801 4.87704 3.89635 4.9824 3.95619 5.07595C4.01842 5.17178 4.07229 5.25053 4.11781 5.31218L3.77353 5.75604C3.71834 5.70338 3.66167 5.64702 3.6035 5.58696C3.54715 5.52408 3.492 5.46234 3.43805 5.40175C3.38832 5.34063 3.34099 5.2818 3.29606 5.22526C3.25294 5.16589 3.21794 5.11199 3.19104 5.06354L2.88276 5.54174C2.94855 5.65008 3.03089 5.76282 3.12977 5.87995ZM4.30069 4.57763C4.27933 4.50256 4.28956 4.43259 4.33139 4.3677C4.36959 4.30845 4.4221 4.2811 4.48893 4.28563C4.55817 4.29246 4.65459 4.35029 4.7782 4.45912L4.4539 4.88102C4.37312 4.75383 4.32206 4.6527 4.30069 4.57763ZM4.48168 6.00113C4.47979 6.02211 4.47339 6.04106 4.46247 6.05798C4.38245 6.18212 4.22809 6.15103 3.99941 5.96473L4.30189 5.57668C4.35634 5.66054 4.39731 5.72924 4.42479 5.7828C4.45227 5.83636 4.47015 5.88076 4.47843 5.91601C4.48671 5.95125 4.4878 5.97963 4.48168 6.00113Z" fill="#9A9999"/>
<path d="M24.2555 18.5674L28.3269 15.3493C28.4259 15.2711 28.4286 15.122 28.3327 15.0402L20.4217 8.29694C18.5801 6.72716 15.8786 6.7015 14.0075 8.236L5.7131 15.0383C5.61345 15.12 5.61597 15.2733 5.71826 15.3517L9.91382 18.5674M24.2555 18.5674L21.8925 20.4351C20.6928 21.3834 19.993 22.8285 19.993 24.3578V28.585L28.5181 21.9365L24.2555 18.5674ZM9.91382 18.5674L12.3512 20.4355C13.5857 21.3817 14.3096 22.8485 14.3096 24.404V28.585L5.51807 21.9365L9.91382 18.5674ZM12.6223 15.1982L13.9885 14.0287C15.8601 12.4264 18.62 12.4264 20.4917 14.0287L21.8578 15.1982" stroke="#17D1ED" stroke-width="4"/>
<path d="M39.999 10.7H42.279V19.25C42.279 19.9213 42.1713 20.5547 41.956 21.15C41.7533 21.7327 41.443 22.2457 41.025 22.689C40.6197 23.1197 40.113 23.4617 39.505 23.715C38.9097 23.9683 38.2257 24.095 37.453 24.095C36.655 24.095 35.952 23.962 35.344 23.696C34.736 23.43 34.223 23.0753 33.805 22.632C33.3997 22.1887 33.0957 21.6757 32.893 21.093C32.6903 20.5103 32.589 19.9023 32.589 19.269C32.589 18.585 32.703 17.9517 32.931 17.369C33.159 16.7737 33.4757 16.2607 33.881 15.83C34.2863 15.3867 34.774 15.0383 35.344 14.785C35.914 14.5317 36.5347 14.405 37.206 14.405C37.814 14.405 38.346 14.5127 38.802 14.728C39.2707 14.9433 39.6697 15.2347 39.999 15.602V10.7ZM34.869 19.25C34.869 19.63 34.9133 19.9847 35.002 20.314C35.1033 20.6433 35.2553 20.9347 35.458 21.188C35.6733 21.4287 35.9457 21.6187 36.275 21.758C36.6043 21.8973 37.0033 21.967 37.472 21.967C38.2573 21.967 38.8717 21.7517 39.315 21.321C39.771 20.8777 39.999 20.1873 39.999 19.25C39.999 18.3127 39.771 17.6287 39.315 17.198C38.8717 16.7547 38.2573 16.533 37.472 16.533C37.0033 16.533 36.6043 16.6027 36.275 16.742C35.9457 16.8813 35.6733 17.0777 35.458 17.331C35.2553 17.5717 35.1033 17.8567 35.002 18.186C34.9133 18.5153 34.869 18.87 34.869 19.25ZM48.7153 20.675C48.2973 20.675 47.8666 20.6243 47.4233 20.523C46.9926 20.4217 46.5936 20.2823 46.2263 20.105C46.3403 20.6497 46.6126 21.0867 47.0433 21.416C47.4866 21.7453 48.1769 21.91 49.1143 21.91C49.3169 21.91 49.5513 21.9037 49.8173 21.891C50.0833 21.8657 50.3556 21.8403 50.6343 21.815C50.9129 21.7897 51.1789 21.758 51.4323 21.72C51.6856 21.6693 51.9009 21.6123 52.0783 21.549V23.696C51.8503 23.7593 51.5969 23.8163 51.3183 23.867C51.0523 23.9177 50.7799 23.962 50.5013 24C50.2226 24.038 49.9503 24.0633 49.6843 24.076C49.4309 24.1013 49.1903 24.114 48.9623 24.114C48.1136 24.114 47.3663 23.9873 46.7203 23.734C46.0869 23.4807 45.5549 23.1387 45.1243 22.708C44.7063 22.2647 44.3896 21.7517 44.1743 21.169C43.9716 20.5737 43.8703 19.9467 43.8703 19.288C43.8703 18.604 43.9779 17.9707 44.1933 17.388C44.4086 16.7927 44.7189 16.2733 45.1243 15.83C45.5423 15.3867 46.0489 15.0383 46.6443 14.785C47.2523 14.5317 47.9426 14.405 48.7153 14.405C49.2979 14.405 49.8363 14.481 50.3303 14.633C50.8243 14.785 51.2486 15.0003 51.6033 15.279C51.9706 15.5577 52.2493 15.887 52.4393 16.267C52.6419 16.647 52.7433 17.0713 52.7433 17.54C52.7433 18.0087 52.6419 18.4393 52.4393 18.832C52.2493 19.212 51.9769 19.5413 51.6223 19.82C51.2676 20.086 50.8433 20.295 50.3493 20.447C49.8553 20.599 49.3106 20.675 48.7153 20.675ZM48.7343 18.471C49.2663 18.471 49.6843 18.395 49.9883 18.243C50.2923 18.0783 50.4443 17.844 50.4443 17.54C50.4443 17.236 50.2923 17.008 49.9883 16.856C49.6969 16.6913 49.2979 16.609 48.7913 16.609C48.1199 16.609 47.5879 16.742 47.1953 17.008C46.8153 17.2613 46.5366 17.6033 46.3593 18.034C46.7013 18.1733 47.0813 18.281 47.4993 18.357C47.9299 18.433 48.3416 18.471 48.7343 18.471ZM53.8898 19.231C53.8898 18.5723 53.9974 17.9517 54.2128 17.369C54.4281 16.7737 54.7448 16.2607 55.1628 15.83C55.5808 15.3867 56.0938 15.0383 56.7018 14.785C57.3098 14.5317 58.0001 14.405 58.7728 14.405C59.4948 14.405 60.1471 14.519 60.7298 14.747C61.3124 14.975 61.8064 15.298 62.2118 15.716C62.6298 16.134 62.9528 16.647 63.1808 17.255C63.4214 17.8503 63.5544 18.5153 63.5798 19.25C63.5924 19.4907 63.5988 19.7883 63.5988 20.143C63.5988 20.485 63.6178 20.865 63.6558 21.283C63.6938 21.701 63.7634 22.1443 63.8648 22.613C63.9661 23.069 64.1244 23.5313 64.3398 24H62.0598C61.8444 23.5313 61.6861 23.0437 61.5848 22.537C61.2554 23.0183 60.8374 23.3983 60.3308 23.677C59.8241 23.9557 59.2161 24.095 58.5068 24.095C57.8354 24.095 57.2148 23.9683 56.6448 23.715C56.0748 23.4617 55.5871 23.1197 55.1818 22.689C54.7764 22.2457 54.4598 21.7327 54.2318 21.15C54.0038 20.5547 53.8898 19.915 53.8898 19.231ZM58.7728 16.533C58.3041 16.533 57.9051 16.6027 57.5758 16.742C57.2464 16.8813 56.9741 17.0777 56.7588 17.331C56.5561 17.5717 56.4041 17.8567 56.3028 18.186C56.2141 18.5153 56.1698 18.87 56.1698 19.25C56.1698 19.63 56.2141 19.9847 56.3028 20.314C56.4041 20.6433 56.5561 20.9347 56.7588 21.188C56.9741 21.4287 57.2464 21.6187 57.5758 21.758C57.9051 21.8973 58.3041 21.967 58.7728 21.967C59.5581 21.967 60.1724 21.7517 60.6158 21.321C61.0718 20.8777 61.2998 20.1873 61.2998 19.25C61.2618 18.414 61.0464 17.7553 60.6538 17.274C60.2611 16.78 59.6341 16.533 58.7728 16.533ZM68.1319 24H65.8519V10.7H68.1319V24ZM74.3874 18.262C74.856 18.3507 75.3057 18.452 75.7364 18.566C76.1797 18.6673 76.5724 18.8193 76.9144 19.022C77.2564 19.212 77.5287 19.4717 77.7314 19.801C77.934 20.1177 78.0354 20.5357 78.0354 21.055C78.0354 21.587 77.9214 22.0493 77.6934 22.442C77.4654 22.822 77.1487 23.1387 76.7434 23.392C76.3507 23.6327 75.8884 23.8163 75.3564 23.943C74.8244 24.057 74.248 24.114 73.6274 24.114C73.374 24.114 73.089 24.1013 72.7724 24.076C72.4684 24.0633 72.1517 24.038 71.8224 24C71.493 23.962 71.17 23.9177 70.8534 23.867C70.5367 23.8163 70.2454 23.7593 69.9794 23.696V21.549C70.1947 21.6123 70.4544 21.6693 70.7584 21.72C71.075 21.758 71.4044 21.796 71.7464 21.834C72.0884 21.8593 72.4304 21.8847 72.7724 21.91C73.127 21.9227 73.45 21.929 73.7414 21.929C74.5014 21.929 75.0397 21.872 75.3564 21.758C75.6857 21.6313 75.8504 21.435 75.8504 21.169C75.8504 21.0803 75.8187 21.0043 75.7554 20.941C75.7047 20.865 75.5907 20.7953 75.4134 20.732C75.2487 20.656 75.008 20.5863 74.6914 20.523C74.3747 20.447 73.9567 20.3583 73.4374 20.257C73.1967 20.2063 72.8864 20.143 72.5064 20.067C72.1264 19.991 71.7527 19.8517 71.3854 19.649C71.0307 19.4463 70.7204 19.1677 70.4544 18.813C70.1884 18.4583 70.0554 17.9833 70.0554 17.388C70.0554 16.8813 70.1567 16.4443 70.3594 16.077C70.562 15.697 70.8407 15.3867 71.1954 15.146C71.5627 14.8927 71.9934 14.709 72.4874 14.595C72.9814 14.4683 73.5197 14.405 74.1024 14.405C74.3304 14.405 74.59 14.4177 74.8814 14.443C75.1854 14.4557 75.4894 14.481 75.7934 14.519C76.0974 14.557 76.4014 14.6013 76.7054 14.652C77.0094 14.7027 77.288 14.7597 77.5414 14.823V16.97C77.364 16.9193 77.1297 16.875 76.8384 16.837C76.547 16.7863 76.2367 16.742 75.9074 16.704C75.5907 16.666 75.2614 16.6407 74.9194 16.628C74.59 16.6027 74.2924 16.59 74.0264 16.59C73.355 16.59 72.8864 16.6533 72.6204 16.78C72.367 16.9067 72.2404 17.084 72.2404 17.312C72.2404 17.4387 72.272 17.5463 72.3354 17.635C72.4114 17.711 72.5317 17.787 72.6964 17.863C72.861 17.9263 73.0827 17.9897 73.3614 18.053C73.64 18.1163 73.982 18.186 74.3874 18.262ZM82.0479 24H79.7679V14.5H82.0479V24ZM79.4449 11.954C79.4449 11.5487 79.5716 11.2067 79.8249 10.928C80.0909 10.6493 80.4519 10.51 80.9079 10.51C81.3639 10.51 81.7186 10.6557 81.9719 10.947C82.2253 11.2257 82.3519 11.5613 82.3519 11.954C82.3519 12.3593 82.2253 12.7077 81.9719 12.999C81.7186 13.2777 81.3639 13.417 80.9079 13.417C80.4519 13.417 80.0909 13.2777 79.8249 12.999C79.5716 12.7077 79.4449 12.3593 79.4449 11.954ZM88.9874 16.533C88.1767 16.533 87.575 16.7863 87.1824 17.293C86.8024 17.7997 86.6124 18.452 86.6124 19.25V24H84.3324V19.25C84.3324 18.5787 84.4337 17.9517 84.6364 17.369C84.8517 16.7737 85.1557 16.2607 85.5484 15.83C85.9537 15.3867 86.4414 15.0383 87.0114 14.785C87.594 14.5317 88.2527 14.405 88.9874 14.405C89.722 14.405 90.3744 14.5317 90.9444 14.785C91.527 15.0383 92.0147 15.3867 92.4074 15.83C92.8127 16.2607 93.1167 16.7737 93.3194 17.369C93.5347 17.9517 93.6424 18.5787 93.6424 19.25V24H91.3624V19.25C91.3624 18.452 91.166 17.7997 90.7734 17.293C90.3934 16.7863 89.798 16.533 88.9874 16.533ZM98.0421 24H95.7621V14.5H98.0421V24ZM95.4391 11.954C95.4391 11.5487 95.5657 11.2067 95.8191 10.928C96.0851 10.6493 96.4461 10.51 96.9021 10.51C97.3581 10.51 97.7127 10.6557 97.9661 10.947C98.2194 11.2257 98.3461 11.5613 98.3461 11.954C98.3461 12.3593 98.2194 12.7077 97.9661 12.999C97.7127 13.2777 97.3581 13.417 96.9021 13.417C96.4461 13.417 96.0851 13.2777 95.8191 12.999C95.5657 12.7077 95.4391 12.3593 95.4391 11.954Z" fill="#E9E9E9"/>
<path d="M36.3584 31.1914C36.3584 31.1055 36.3369 31.0205 36.2939 30.9365C36.251 30.8525 36.168 30.7754 36.0449 30.7051C35.9238 30.6348 35.7451 30.5752 35.5088 30.5264C35.333 30.4873 35.1758 30.4434 35.0371 30.3945C34.9004 30.3457 34.7852 30.2871 34.6914 30.2188C34.5977 30.1504 34.5264 30.0684 34.4775 29.9727C34.4287 29.877 34.4043 29.7637 34.4043 29.6328C34.4043 29.5156 34.4297 29.4053 34.4805 29.3018C34.5332 29.1963 34.6074 29.1045 34.7031 29.0264C34.8008 28.9463 34.918 28.8838 35.0547 28.8389C35.1934 28.7939 35.3486 28.7715 35.5205 28.7715C35.7646 28.7715 35.9736 28.8135 36.1475 28.8975C36.3232 28.9795 36.457 29.0918 36.5488 29.2344C36.6426 29.377 36.6895 29.5381 36.6895 29.7178H36.3408C36.3408 29.6084 36.3086 29.5049 36.2441 29.4072C36.1816 29.3096 36.0889 29.2295 35.9658 29.167C35.8447 29.1045 35.6963 29.0732 35.5205 29.0732C35.3389 29.0732 35.1914 29.1006 35.0781 29.1553C34.9648 29.21 34.8818 29.2793 34.8291 29.3633C34.7783 29.4473 34.7529 29.5342 34.7529 29.624C34.7529 29.6943 34.7637 29.7588 34.7852 29.8174C34.8086 29.874 34.8496 29.9268 34.9082 29.9756C34.9688 30.0244 35.0547 30.0703 35.166 30.1133C35.2773 30.1562 35.4219 30.1982 35.5996 30.2393C35.8555 30.2959 36.0645 30.3652 36.2266 30.4473C36.3906 30.5273 36.5117 30.627 36.5898 30.7461C36.668 30.8633 36.707 31.0059 36.707 31.1738C36.707 31.3047 36.6797 31.4248 36.625 31.5342C36.5703 31.6416 36.4912 31.7344 36.3877 31.8125C36.2861 31.8906 36.1631 31.9512 36.0186 31.9941C35.876 32.0371 35.7158 32.0586 35.5381 32.0586C35.2705 32.0586 35.0439 32.0146 34.8584 31.9268C34.6748 31.8369 34.5352 31.7197 34.4395 31.5752C34.3457 31.4287 34.2988 31.2734 34.2988 31.1094H34.6475C34.6592 31.2734 34.7109 31.4033 34.8027 31.499C34.8945 31.5928 35.0068 31.6592 35.1396 31.6982C35.2744 31.7373 35.4072 31.7568 35.5381 31.7568C35.7178 31.7568 35.8682 31.7305 35.9893 31.6777C36.1104 31.625 36.2021 31.5557 36.2646 31.4697C36.3271 31.3838 36.3584 31.291 36.3584 31.1914ZM38.7256 32.0586C38.5186 32.0586 38.3281 32.0205 38.1543 31.9443C37.9824 31.8682 37.832 31.7607 37.7031 31.6221C37.5762 31.4834 37.4775 31.3193 37.4072 31.1299C37.3389 30.9385 37.3047 30.7295 37.3047 30.5029V30.377C37.3047 30.1328 37.3408 29.9121 37.4131 29.7148C37.4854 29.5176 37.585 29.3486 37.7119 29.208C37.8389 29.0674 37.9834 28.96 38.1455 28.8857C38.3096 28.8096 38.4814 28.7715 38.6611 28.7715C38.8623 28.7715 39.041 28.8076 39.1973 28.8799C39.3535 28.9502 39.4844 29.0508 39.5898 29.1816C39.6973 29.3105 39.7783 29.4639 39.833 29.6416C39.8877 29.8174 39.915 30.0117 39.915 30.2246V30.4385H37.5156V30.1396H39.5664V30.0986C39.5625 29.9209 39.5264 29.7549 39.458 29.6006C39.3916 29.4443 39.292 29.3174 39.1592 29.2197C39.0264 29.1221 38.8604 29.0732 38.6611 29.0732C38.5127 29.0732 38.376 29.1045 38.251 29.167C38.1279 29.2295 38.0215 29.3193 37.9316 29.4365C37.8438 29.5518 37.7754 29.6895 37.7266 29.8496C37.6797 30.0078 37.6562 30.1836 37.6562 30.377V30.5029C37.6562 30.6787 37.6816 30.8428 37.7324 30.9951C37.7852 31.1455 37.8594 31.2783 37.9551 31.3936C38.0527 31.5088 38.168 31.5986 38.3008 31.6631C38.4336 31.7275 38.5801 31.7598 38.7402 31.7598C38.9277 31.7598 39.0938 31.7256 39.2383 31.6572C39.3828 31.5869 39.5127 31.4766 39.6279 31.3262L39.8477 31.4961C39.7793 31.5977 39.6934 31.6914 39.5898 31.7773C39.4883 31.8633 39.3662 31.9316 39.2236 31.9824C39.0811 32.0332 38.915 32.0586 38.7256 32.0586ZM40.9375 29.4863V32H40.5859V28.8301H40.9229L40.9375 29.4863ZM40.873 30.2188L40.7031 30.1309C40.7148 29.9434 40.75 29.7676 40.8086 29.6035C40.8691 29.4395 40.9531 29.2949 41.0605 29.1699C41.168 29.0449 41.2969 28.9473 41.4473 28.877C41.5977 28.8066 41.7686 28.7715 41.96 28.7715C42.1143 28.7715 42.2539 28.793 42.3789 28.8359C42.5059 28.877 42.6133 28.9424 42.7012 29.0322C42.791 29.1201 42.8604 29.2354 42.9092 29.3779C42.958 29.5205 42.9824 29.6914 42.9824 29.8906V32H42.6338V29.9023C42.6338 29.6914 42.6006 29.5264 42.5342 29.4072C42.4697 29.2881 42.3789 29.2031 42.2617 29.1523C42.1465 29.1016 42.0127 29.0762 41.8604 29.0762C41.6807 29.0762 41.5283 29.1133 41.4033 29.1875C41.2803 29.2598 41.1797 29.3545 41.1016 29.4717C41.0254 29.5869 40.9688 29.7109 40.9316 29.8438C40.8945 29.9746 40.875 30.0996 40.873 30.2188ZM42.9795 29.9434L42.7451 29.9492C42.7549 29.7949 42.79 29.6475 42.8506 29.5068C42.9131 29.3662 42.998 29.2412 43.1055 29.1318C43.2129 29.0205 43.3408 28.9326 43.4893 28.8682C43.6396 28.8037 43.8086 28.7715 43.9961 28.7715C44.1602 28.7715 44.3066 28.7939 44.4355 28.8389C44.5645 28.8818 44.6729 28.9512 44.7607 29.0469C44.8506 29.1406 44.9189 29.2607 44.9658 29.4072C45.0127 29.5537 45.0361 29.7295 45.0361 29.9346V32H44.6846V29.9316C44.6846 29.707 44.6514 29.5332 44.585 29.4102C44.5205 29.2852 44.4307 29.1982 44.3154 29.1494C44.2002 29.1006 44.0654 29.0762 43.9111 29.0762C43.7588 29.0781 43.625 29.1064 43.5098 29.1611C43.3945 29.2139 43.2979 29.2842 43.2197 29.3721C43.1436 29.458 43.085 29.5508 43.0439 29.6504C43.0049 29.75 42.9834 29.8477 42.9795 29.9434ZM47.957 31.2676V28.8301H48.3086V32H47.9717L47.957 31.2676ZM48.0215 30.6816L48.2031 30.6758C48.2031 30.875 48.1797 31.0586 48.1328 31.2266C48.0859 31.3945 48.0127 31.541 47.9131 31.666C47.8135 31.791 47.6846 31.8877 47.5264 31.9561C47.3682 32.0244 47.1777 32.0586 46.9551 32.0586C46.8008 32.0586 46.6592 32.0371 46.5303 31.9941C46.4033 31.9492 46.2939 31.8789 46.2021 31.7832C46.1104 31.6875 46.0391 31.5635 45.9883 31.4111C45.9395 31.2588 45.915 31.0742 45.915 30.8574V28.8301H46.2637V30.8633C46.2637 31.0332 46.2822 31.1748 46.3193 31.2881C46.3584 31.4014 46.4111 31.4922 46.4775 31.5605C46.5459 31.6289 46.624 31.6777 46.7119 31.707C46.7998 31.7363 46.8945 31.751 46.9961 31.751C47.2539 31.751 47.457 31.7012 47.6055 31.6016C47.7559 31.502 47.8623 31.3711 47.9248 31.209C47.9893 31.0449 48.0215 30.8691 48.0215 30.6816ZM51.1533 31.4316V29.7969C51.1533 29.6465 51.1221 29.5166 51.0596 29.4072C50.9971 29.2979 50.9053 29.2139 50.7842 29.1553C50.6631 29.0967 50.5137 29.0674 50.3359 29.0674C50.1719 29.0674 50.0254 29.0967 49.8965 29.1553C49.7695 29.2119 49.6689 29.2891 49.5947 29.3867C49.5225 29.4824 49.4863 29.5889 49.4863 29.7061L49.1348 29.7031C49.1348 29.584 49.1641 29.4688 49.2227 29.3574C49.2812 29.2461 49.3643 29.1465 49.4717 29.0586C49.5791 28.9707 49.707 28.9014 49.8555 28.8506C50.0059 28.7979 50.1709 28.7715 50.3506 28.7715C50.5771 28.7715 50.7764 28.8096 50.9482 28.8857C51.1221 28.9619 51.2578 29.0762 51.3555 29.2285C51.4531 29.3809 51.502 29.5723 51.502 29.8027V31.335C51.502 31.4443 51.5098 31.5576 51.5254 31.6748C51.543 31.792 51.5674 31.8887 51.5986 31.9648V32H51.2266C51.2031 31.9297 51.1846 31.8418 51.1709 31.7363C51.1592 31.6289 51.1533 31.5273 51.1533 31.4316ZM51.2354 30.1543L51.2412 30.4238H50.5527C50.373 30.4238 50.2119 30.4404 50.0693 30.4736C49.9287 30.5049 49.8096 30.5518 49.7119 30.6143C49.6143 30.6748 49.5391 30.748 49.4863 30.834C49.4355 30.9199 49.4102 31.0176 49.4102 31.127C49.4102 31.2402 49.4385 31.3438 49.4951 31.4375C49.5537 31.5312 49.6357 31.6064 49.7412 31.6631C49.8486 31.7178 49.9756 31.7451 50.1221 31.7451C50.3174 31.7451 50.4893 31.709 50.6377 31.6367C50.7881 31.5645 50.9121 31.4697 51.0098 31.3525C51.1074 31.2354 51.1729 31.1074 51.2061 30.9688L51.3584 31.1709C51.333 31.2686 51.2861 31.3691 51.2178 31.4727C51.1514 31.5742 51.0645 31.6699 50.957 31.7598C50.8496 31.8477 50.7227 31.9199 50.5762 31.9766C50.4316 32.0312 50.2676 32.0586 50.084 32.0586C49.877 32.0586 49.6963 32.0195 49.542 31.9414C49.3896 31.8633 49.2705 31.7568 49.1846 31.6221C49.1006 31.4854 49.0586 31.3311 49.0586 31.1592C49.0586 31.0029 49.0918 30.8633 49.1582 30.7402C49.2246 30.6152 49.3203 30.5098 49.4453 30.4238C49.5723 30.3359 49.7246 30.2695 49.9023 30.2246C50.082 30.1777 50.2832 30.1543 50.5059 30.1543H51.2354ZM53.9014 27.5H54.2529V31.3848L54.2295 32H53.9014V27.5ZM56.459 30.3857V30.4473C56.459 30.6836 56.4316 30.9004 56.377 31.0977C56.3223 31.2949 56.2432 31.4658 56.1396 31.6104C56.0361 31.7529 55.9092 31.8633 55.7588 31.9414C55.6104 32.0195 55.4395 32.0586 55.2461 32.0586C55.0566 32.0586 54.8887 32.0293 54.7422 31.9707C54.5957 31.9102 54.4707 31.8252 54.3672 31.7158C54.2637 31.6045 54.1807 31.4746 54.1182 31.3262C54.0557 31.1758 54.0117 31.0107 53.9863 30.8311V30.0488C54.0156 29.8574 54.0625 29.6836 54.127 29.5273C54.1914 29.3711 54.2744 29.2363 54.376 29.123C54.4795 29.0098 54.6025 28.9229 54.7451 28.8623C54.8896 28.8018 55.0547 28.7715 55.2402 28.7715C55.4336 28.7715 55.6055 28.8096 55.7559 28.8857C55.9082 28.96 56.0361 29.0684 56.1396 29.2109C56.2432 29.3516 56.3223 29.5215 56.377 29.7207C56.4316 29.918 56.459 30.1396 56.459 30.3857ZM56.1045 30.4473V30.3857C56.1045 30.2002 56.0869 30.0283 56.0518 29.8701C56.0166 29.7119 55.9609 29.5742 55.8848 29.457C55.8105 29.3379 55.7148 29.2451 55.5977 29.1787C55.4805 29.1123 55.3398 29.0791 55.1758 29.0791C55.0078 29.0791 54.8643 29.1074 54.7451 29.1641C54.6279 29.2188 54.5303 29.292 54.4521 29.3838C54.376 29.4736 54.3154 29.5723 54.2705 29.6797C54.2256 29.7871 54.1924 29.8926 54.1709 29.9961V30.9072C54.2041 31.0537 54.2617 31.1914 54.3438 31.3203C54.4258 31.4492 54.5361 31.5537 54.6748 31.6338C54.8135 31.7119 54.9824 31.751 55.1816 31.751C55.3418 31.751 55.4795 31.7178 55.5947 31.6514C55.7119 31.585 55.8076 31.4932 55.8818 31.376C55.958 31.2588 56.0137 31.1211 56.0488 30.9629C56.0859 30.8047 56.1045 30.6328 56.1045 30.4473ZM57.625 28.8301V32H57.2764V28.8301H57.625ZM57.2148 27.9131C57.2148 27.8467 57.2354 27.791 57.2764 27.7461C57.3193 27.6992 57.3779 27.6758 57.4521 27.6758C57.5264 27.6758 57.585 27.6992 57.6279 27.7461C57.6729 27.791 57.6953 27.8467 57.6953 27.9131C57.6953 27.9775 57.6729 28.0332 57.6279 28.0801C57.585 28.125 57.5264 28.1475 57.4521 28.1475C57.3779 28.1475 57.3193 28.125 57.2764 28.0801C57.2354 28.0332 57.2148 27.9775 57.2148 27.9131ZM60.4814 31.1914C60.4814 31.1055 60.46 31.0205 60.417 30.9365C60.374 30.8525 60.291 30.7754 60.168 30.7051C60.0469 30.6348 59.8682 30.5752 59.6318 30.5264C59.4561 30.4873 59.2988 30.4434 59.1602 30.3945C59.0234 30.3457 58.9082 30.2871 58.8145 30.2188C58.7207 30.1504 58.6494 30.0684 58.6006 29.9727C58.5518 29.877 58.5273 29.7637 58.5273 29.6328C58.5273 29.5156 58.5527 29.4053 58.6035 29.3018C58.6562 29.1963 58.7305 29.1045 58.8262 29.0264C58.9238 28.9463 59.041 28.8838 59.1777 28.8389C59.3164 28.7939 59.4717 28.7715 59.6436 28.7715C59.8877 28.7715 60.0967 28.8135 60.2705 28.8975C60.4463 28.9795 60.5801 29.0918 60.6719 29.2344C60.7656 29.377 60.8125 29.5381 60.8125 29.7178H60.4639C60.4639 29.6084 60.4316 29.5049 60.3672 29.4072C60.3047 29.3096 60.2119 29.2295 60.0889 29.167C59.9678 29.1045 59.8193 29.0732 59.6436 29.0732C59.4619 29.0732 59.3145 29.1006 59.2012 29.1553C59.0879 29.21 59.0049 29.2793 58.9521 29.3633C58.9014 29.4473 58.876 29.5342 58.876 29.624C58.876 29.6943 58.8867 29.7588 58.9082 29.8174C58.9316 29.874 58.9727 29.9268 59.0312 29.9756C59.0918 30.0244 59.1777 30.0703 59.2891 30.1133C59.4004 30.1562 59.5449 30.1982 59.7227 30.2393C59.9785 30.2959 60.1875 30.3652 60.3496 30.4473C60.5137 30.5273 60.6348 30.627 60.7129 30.7461C60.791 30.8633 60.8301 31.0059 60.8301 31.1738C60.8301 31.3047 60.8027 31.4248 60.748 31.5342C60.6934 31.6416 60.6143 31.7344 60.5107 31.8125C60.4092 31.8906 60.2861 31.9512 60.1416 31.9941C59.999 32.0371 59.8389 32.0586 59.6611 32.0586C59.3936 32.0586 59.167 32.0146 58.9814 31.9268C58.7979 31.8369 58.6582 31.7197 58.5625 31.5752C58.4688 31.4287 58.4219 31.2734 58.4219 31.1094H58.7705C58.7822 31.2734 58.834 31.4033 58.9258 31.499C59.0176 31.5928 59.1299 31.6592 59.2627 31.6982C59.3975 31.7373 59.5303 31.7568 59.6611 31.7568C59.8408 31.7568 59.9912 31.7305 60.1123 31.6777C60.2334 31.625 60.3252 31.5557 60.3877 31.4697C60.4502 31.3838 60.4814 31.291 60.4814 31.1914ZM63.5518 31.4316V29.7969C63.5518 29.6465 63.5205 29.5166 63.458 29.4072C63.3955 29.2979 63.3037 29.2139 63.1826 29.1553C63.0615 29.0967 62.9121 29.0674 62.7344 29.0674C62.5703 29.0674 62.4238 29.0967 62.2949 29.1553C62.168 29.2119 62.0674 29.2891 61.9932 29.3867C61.9209 29.4824 61.8848 29.5889 61.8848 29.7061L61.5332 29.7031C61.5332 29.584 61.5625 29.4688 61.6211 29.3574C61.6797 29.2461 61.7627 29.1465 61.8701 29.0586C61.9775 28.9707 62.1055 28.9014 62.2539 28.8506C62.4043 28.7979 62.5693 28.7715 62.749 28.7715C62.9756 28.7715 63.1748 28.8096 63.3467 28.8857C63.5205 28.9619 63.6562 29.0762 63.7539 29.2285C63.8516 29.3809 63.9004 29.5723 63.9004 29.8027V31.335C63.9004 31.4443 63.9082 31.5576 63.9238 31.6748C63.9414 31.792 63.9658 31.8887 63.9971 31.9648V32H63.625C63.6016 31.9297 63.583 31.8418 63.5693 31.7363C63.5576 31.6289 63.5518 31.5273 63.5518 31.4316ZM63.6338 30.1543L63.6396 30.4238H62.9512C62.7715 30.4238 62.6104 30.4404 62.4678 30.4736C62.3271 30.5049 62.208 30.5518 62.1104 30.6143C62.0127 30.6748 61.9375 30.748 61.8848 30.834C61.834 30.9199 61.8086 31.0176 61.8086 31.127C61.8086 31.2402 61.8369 31.3438 61.8936 31.4375C61.9521 31.5312 62.0342 31.6064 62.1396 31.6631C62.2471 31.7178 62.374 31.7451 62.5205 31.7451C62.7158 31.7451 62.8877 31.709 63.0361 31.6367C63.1865 31.5645 63.3105 31.4697 63.4082 31.3525C63.5059 31.2354 63.5713 31.1074 63.6045 30.9688L63.7568 31.1709C63.7314 31.2686 63.6846 31.3691 63.6162 31.4727C63.5498 31.5742 63.4629 31.6699 63.3555 31.7598C63.248 31.8477 63.1211 31.9199 62.9746 31.9766C62.8301 32.0312 62.666 32.0586 62.4824 32.0586C62.2754 32.0586 62.0947 32.0195 61.9404 31.9414C61.7881 31.8633 61.6689 31.7568 61.583 31.6221C61.499 31.4854 61.457 31.3311 61.457 31.1592C61.457 31.0029 61.4902 30.8633 61.5566 30.7402C61.623 30.6152 61.7188 30.5098 61.8438 30.4238C61.9707 30.3359 62.123 30.2695 62.3008 30.2246C62.4805 30.1777 62.6816 30.1543 62.9043 30.1543H63.6338ZM66.332 28.8301H66.6836V32.3779C66.6836 32.5713 66.6514 32.7354 66.5869 32.8701C66.5225 33.0049 66.4287 33.1064 66.3057 33.1748C66.1826 33.2451 66.0312 33.2803 65.8516 33.2803C65.8027 33.2803 65.75 33.2754 65.6934 33.2656C65.6367 33.2559 65.585 33.2422 65.5381 33.2246L65.5439 32.9316C65.5791 32.9414 65.6211 32.9502 65.6699 32.958C65.7168 32.9678 65.7627 32.9727 65.8076 32.9727C65.9209 32.9727 66.0166 32.9502 66.0947 32.9053C66.1729 32.8623 66.2314 32.7969 66.2705 32.709C66.3115 32.6211 66.332 32.5107 66.332 32.3779V28.8301ZM66.2705 27.9131C66.2705 27.8467 66.292 27.791 66.335 27.7461C66.3779 27.6992 66.4365 27.6758 66.5107 27.6758C66.585 27.6758 66.6436 27.6992 66.6865 27.7461C66.7314 27.791 66.7539 27.8467 66.7539 27.9131C66.7539 27.9775 66.7314 28.0332 66.6865 28.0801C66.6436 28.125 66.585 28.1475 66.5107 28.1475C66.4365 28.1475 66.3779 28.125 66.335 28.0801C66.292 28.0332 66.2705 27.9775 66.2705 27.9131ZM69.6045 31.4316V29.7969C69.6045 29.6465 69.5732 29.5166 69.5107 29.4072C69.4482 29.2979 69.3564 29.2139 69.2354 29.1553C69.1143 29.0967 68.9648 29.0674 68.7871 29.0674C68.623 29.0674 68.4766 29.0967 68.3477 29.1553C68.2207 29.2119 68.1201 29.2891 68.0459 29.3867C67.9736 29.4824 67.9375 29.5889 67.9375 29.7061L67.5859 29.7031C67.5859 29.584 67.6152 29.4688 67.6738 29.3574C67.7324 29.2461 67.8154 29.1465 67.9229 29.0586C68.0303 28.9707 68.1582 28.9014 68.3066 28.8506C68.457 28.7979 68.6221 28.7715 68.8018 28.7715C69.0283 28.7715 69.2275 28.8096 69.3994 28.8857C69.5732 28.9619 69.709 29.0762 69.8066 29.2285C69.9043 29.3809 69.9531 29.5723 69.9531 29.8027V31.335C69.9531 31.4443 69.9609 31.5576 69.9766 31.6748C69.9941 31.792 70.0186 31.8887 70.0498 31.9648V32H69.6777C69.6543 31.9297 69.6357 31.8418 69.6221 31.7363C69.6104 31.6289 69.6045 31.5273 69.6045 31.4316ZM69.6865 30.1543L69.6924 30.4238H69.0039C68.8242 30.4238 68.6631 30.4404 68.5205 30.4736C68.3799 30.5049 68.2607 30.5518 68.1631 30.6143C68.0654 30.6748 67.9902 30.748 67.9375 30.834C67.8867 30.9199 67.8613 31.0176 67.8613 31.127C67.8613 31.2402 67.8896 31.3438 67.9463 31.4375C68.0049 31.5312 68.0869 31.6064 68.1924 31.6631C68.2998 31.7178 68.4268 31.7451 68.5732 31.7451C68.7686 31.7451 68.9404 31.709 69.0889 31.6367C69.2393 31.5645 69.3633 31.4697 69.4609 31.3525C69.5586 31.2354 69.624 31.1074 69.6572 30.9688L69.8096 31.1709C69.7842 31.2686 69.7373 31.3691 69.6689 31.4727C69.6025 31.5742 69.5156 31.6699 69.4082 31.7598C69.3008 31.8477 69.1738 31.9199 69.0273 31.9766C68.8828 32.0312 68.7188 32.0586 68.5352 32.0586C68.3281 32.0586 68.1475 32.0195 67.9932 31.9414C67.8408 31.8633 67.7217 31.7568 67.6357 31.6221C67.5518 31.4854 67.5098 31.3311 67.5098 31.1592C67.5098 31.0029 67.543 30.8633 67.6094 30.7402C67.6758 30.6152 67.7715 30.5098 67.8965 30.4238C68.0234 30.3359 68.1758 30.2695 68.3535 30.2246C68.5332 30.1777 68.7344 30.1543 68.957 30.1543H69.6865ZM72.9531 31.3848V27.5H73.3047V32H72.9766L72.9531 31.3848ZM70.7529 30.4473V30.3857C70.7529 30.1396 70.7812 29.918 70.8379 29.7207C70.8945 29.5215 70.9756 29.3516 71.0811 29.2109C71.1885 29.0684 71.3174 28.96 71.4678 28.8857C71.6182 28.8096 71.7881 28.7715 71.9775 28.7715C72.1631 28.7715 72.3271 28.8018 72.4697 28.8623C72.6123 28.9229 72.7344 29.0098 72.8359 29.123C72.9395 29.2363 73.0225 29.3711 73.085 29.5273C73.1494 29.6836 73.1963 29.8574 73.2256 30.0488V30.8311C73.2021 31.0107 73.1592 31.1758 73.0967 31.3262C73.0342 31.4746 72.9512 31.6045 72.8477 31.7158C72.7441 31.8252 72.6191 31.9102 72.4727 31.9707C72.3281 32.0293 72.1611 32.0586 71.9717 32.0586C71.7842 32.0586 71.6152 32.0195 71.4648 31.9414C71.3145 31.8633 71.1865 31.7529 71.0811 31.6104C70.9756 31.4658 70.8945 31.2949 70.8379 31.0977C70.7812 30.9004 70.7529 30.6836 70.7529 30.4473ZM71.1045 30.3857V30.4473C71.1045 30.6328 71.123 30.8047 71.1602 30.9629C71.1973 31.1211 71.2539 31.2588 71.3301 31.376C71.4062 31.4932 71.5029 31.585 71.6201 31.6514C71.7373 31.7178 71.876 31.751 72.0361 31.751C72.2373 31.751 72.4062 31.7129 72.543 31.6367C72.6797 31.5586 72.7891 31.4561 72.8711 31.3291C72.9531 31.2002 73.0127 31.0596 73.0498 30.9072V29.9961C73.0264 29.8926 72.9922 29.7871 72.9473 29.6797C72.9023 29.5723 72.8408 29.4736 72.7627 29.3838C72.6865 29.292 72.5889 29.2188 72.4697 29.1641C72.3525 29.1074 72.21 29.0791 72.042 29.0791C71.8799 29.0791 71.7402 29.1123 71.623 29.1787C71.5059 29.2451 71.4082 29.3379 71.3301 29.457C71.2539 29.5742 71.1973 29.7119 71.1602 29.8701C71.123 30.0283 71.1045 30.2002 71.1045 30.3857ZM74.6172 28.8301V32H74.2686V28.8301H74.6172ZM74.207 27.9131C74.207 27.8467 74.2275 27.791 74.2686 27.7461C74.3115 27.6992 74.3701 27.6758 74.4443 27.6758C74.5186 27.6758 74.5771 27.6992 74.6201 27.7461C74.665 27.791 74.6875 27.8467 74.6875 27.9131C74.6875 27.9775 74.665 28.0332 74.6201 28.0801C74.5771 28.125 74.5186 28.1475 74.4443 28.1475C74.3701 28.1475 74.3115 28.125 74.2686 28.0801C74.2275 28.0332 74.207 27.9775 74.207 27.9131ZM79.0996 31.3848V27.5H79.4512V32H79.123L79.0996 31.3848ZM76.8994 30.4473V30.3857C76.8994 30.1396 76.9277 29.918 76.9844 29.7207C77.041 29.5215 77.1221 29.3516 77.2275 29.2109C77.335 29.0684 77.4639 28.96 77.6143 28.8857C77.7646 28.8096 77.9346 28.7715 78.124 28.7715C78.3096 28.7715 78.4736 28.8018 78.6162 28.8623C78.7588 28.9229 78.8809 29.0098 78.9824 29.123C79.0859 29.2363 79.1689 29.3711 79.2314 29.5273C79.2959 29.6836 79.3428 29.8574 79.3721 30.0488V30.8311C79.3486 31.0107 79.3057 31.1758 79.2432 31.3262C79.1807 31.4746 79.0977 31.6045 78.9941 31.7158C78.8906 31.8252 78.7656 31.9102 78.6191 31.9707C78.4746 32.0293 78.3076 32.0586 78.1182 32.0586C77.9307 32.0586 77.7617 32.0195 77.6113 31.9414C77.4609 31.8633 77.333 31.7529 77.2275 31.6104C77.1221 31.4658 77.041 31.2949 76.9844 31.0977C76.9277 30.9004 76.8994 30.6836 76.8994 30.4473ZM77.251 30.3857V30.4473C77.251 30.6328 77.2695 30.8047 77.3066 30.9629C77.3438 31.1211 77.4004 31.2588 77.4766 31.376C77.5527 31.4932 77.6494 31.585 77.7666 31.6514C77.8838 31.7178 78.0225 31.751 78.1826 31.751C78.3838 31.751 78.5527 31.7129 78.6895 31.6367C78.8262 31.5586 78.9355 31.4561 79.0176 31.3291C79.0996 31.2002 79.1592 31.0596 79.1963 30.9072V29.9961C79.1729 29.8926 79.1387 29.7871 79.0938 29.6797C79.0488 29.5723 78.9873 29.4736 78.9092 29.3838C78.833 29.292 78.7354 29.2188 78.6162 29.1641C78.499 29.1074 78.3564 29.0791 78.1885 29.0791C78.0264 29.0791 77.8867 29.1123 77.7695 29.1787C77.6523 29.2451 77.5547 29.3379 77.4766 29.457C77.4004 29.5742 77.3438 29.7119 77.3066 29.8701C77.2695 30.0283 77.251 30.2002 77.251 30.3857ZM82.4043 31.2676V28.8301H82.7559V32H82.4189L82.4043 31.2676ZM82.4688 30.6816L82.6504 30.6758C82.6504 30.875 82.627 31.0586 82.5801 31.2266C82.5332 31.3945 82.46 31.541 82.3604 31.666C82.2607 31.791 82.1318 31.8877 81.9736 31.9561C81.8154 32.0244 81.625 32.0586 81.4023 32.0586C81.248 32.0586 81.1064 32.0371 80.9775 31.9941C80.8506 31.9492 80.7412 31.8789 80.6494 31.7832C80.5576 31.6875 80.4863 31.5635 80.4355 31.4111C80.3867 31.2588 80.3623 31.0742 80.3623 30.8574V28.8301H80.7109V30.8633C80.7109 31.0332 80.7295 31.1748 80.7666 31.2881C80.8057 31.4014 80.8584 31.4922 80.9248 31.5605C80.9932 31.6289 81.0713 31.6777 81.1592 31.707C81.2471 31.7363 81.3418 31.751 81.4434 31.751C81.7012 31.751 81.9043 31.7012 82.0527 31.6016C82.2031 31.502 82.3096 31.3711 82.3721 31.209C82.4365 31.0449 82.4688 30.8691 82.4688 30.6816ZM84.0625 28.8301V32H83.7139V28.8301H84.0625ZM83.6523 27.9131C83.6523 27.8467 83.6729 27.791 83.7139 27.7461C83.7568 27.6992 83.8154 27.6758 83.8896 27.6758C83.9639 27.6758 84.0225 27.6992 84.0654 27.7461C84.1104 27.791 84.1328 27.8467 84.1328 27.9131C84.1328 27.9775 84.1104 28.0332 84.0654 28.0801C84.0225 28.125 83.9639 28.1475 83.8896 28.1475C83.8154 28.1475 83.7568 28.125 83.7139 28.0801C83.6729 28.0332 83.6523 27.9775 83.6523 27.9131ZM86.2188 28.8301V29.1172H84.6309V28.8301H86.2188ZM85.2139 28.0156H85.5625V31.2295C85.5625 31.376 85.582 31.4863 85.6211 31.5605C85.6602 31.6348 85.7109 31.6846 85.7734 31.71C85.8359 31.7354 85.9033 31.748 85.9756 31.748C86.0283 31.748 86.0791 31.7451 86.1279 31.7393C86.1768 31.7314 86.2207 31.7236 86.2598 31.7158L86.2744 32.0117C86.2314 32.0254 86.1758 32.0361 86.1074 32.0439C86.0391 32.0537 85.9707 32.0586 85.9023 32.0586C85.7676 32.0586 85.6484 32.0342 85.5449 31.9854C85.4414 31.9346 85.3604 31.8486 85.3018 31.7275C85.2432 31.6045 85.2139 31.4375 85.2139 31.2266V28.0156Z" fill="#E9E9E9"/>
</svg>
